<svg width="22" height="22" viewBox="0 0 22 22" fill="none" xmlns="http://www.w3.org/2000/svg">
<g id="Icons/linear/medal-star">
<g id="medal-star">
<path id="Vector" d="M17.001 8.42932C17.001 9.67218 16.6324 10.8122 15.9981 11.7636C15.0724 13.135 13.6067 14.1036 11.901 14.3522C11.6095 14.4036 11.3095 14.4293 11.001 14.4293C10.6924 14.4293 10.3924 14.4036 10.101 14.3522C8.39526 14.1036 6.92955 13.135 6.00383 11.7636C5.36955 10.8122 5.00098 9.67218 5.00098 8.42932C5.00098 5.11218 7.68383 2.42932 11.001 2.42932C14.3181 2.42932 17.001 5.11218 17.001 8.42932Z" stroke="white" stroke-width="1.28571" stroke-linecap="round" stroke-linejoin="round"/>
<path id="Vector_2" d="M18.9288 16.5469L17.5145 16.8811C17.1974 16.9583 16.9488 17.1983 16.8802 17.5155L16.5802 18.7755C16.4174 19.4612 15.5431 19.6669 15.0888 19.1269L11.0002 14.4297L6.91164 19.1354C6.45735 19.6754 5.58306 19.4697 5.42021 18.784L5.12021 17.524C5.04306 17.2069 4.79449 16.9583 4.48592 16.8897L3.07164 16.5555C2.42021 16.4012 2.18878 15.5869 2.66021 15.1154L6.00306 11.7726C6.92878 13.144 8.39449 14.1126 10.1002 14.3612C10.3916 14.4126 10.6916 14.4383 11.0002 14.4383C11.3088 14.4383 11.6088 14.4126 11.9002 14.3612C13.6059 14.1126 15.0716 13.144 15.9974 11.7726L19.3402 15.1154C19.8116 15.5783 19.5802 16.3926 18.9288 16.5469Z" stroke="white" stroke-width="1.28571" stroke-linecap="round" stroke-linejoin="round"/>
<path id="Vector_3" d="M11.4973 5.84075L12.003 6.85217C12.0715 6.98932 12.2515 7.12646 12.4144 7.15218L13.3315 7.30646C13.9144 7.40074 14.0515 7.82932 13.6315 8.24932L12.9201 8.96074C12.8001 9.08074 12.7315 9.31218 12.7744 9.48361L12.9801 10.3665C13.143 11.0607 12.7744 11.335 12.1573 10.9664L11.3001 10.4607C11.1458 10.3665 10.8887 10.3665 10.7344 10.4607L9.87726 10.9664C9.26012 11.3264 8.89154 11.0607 9.0544 10.3665L9.26012 9.48361C9.2944 9.32075 9.2344 9.08074 9.1144 8.96074L8.40297 8.24932C7.98297 7.82932 8.12012 7.40931 8.70297 7.30646L9.62012 7.15218C9.7744 7.12646 9.9544 6.98932 10.023 6.85217L10.5287 5.84075C10.7773 5.29218 11.223 5.29218 11.4973 5.84075Z" stroke="white" stroke-width="1.28571" stroke-linecap="round" stroke-linejoin="round"/>
</g>
</g>
</svg>
